<?xml version="1.0" encoding="UTF-8"?>
<svg id="_레이어_1" xmlns="http://www.w3.org/2000/svg" version="1.1" viewBox="0 0 512 512">
  <!-- Generator: Adobe Illustrator 29.0.1, SVG Export Plug-In . SVG Version: 2.1.0 Build 192)  -->
  <defs>
    <style>
      .st0 {
        fill: #fff;
      }
    </style>
  </defs>
  <path class="st0" d="M256,76.8c-99,0-179.2,80.2-179.2,179.2s80.2,179.2,179.2,179.2,179.2-80.2,179.2-179.2-80.2-179.2-179.2-179.2ZM256,419.1c-90.1,0-163.1-73-163.1-163.1s73-163.1,163.1-163.1,163.1,73,163.1,163.1-73,163.1-163.1,163.1h0Z"/>
  <path class="st0" d="M256,112.6c-79.2,0-143.4,64.2-143.4,143.4s64.2,143.4,143.4,143.4,143.4-64.2,143.4-143.4-64.2-143.4-143.4-143.4ZM256,386.5c-72,0-130.5-58.4-130.5-130.5s58.4-130.5,130.5-130.5,130.5,58.4,130.5,130.5-58.4,130.5-130.5,130.5h0Z"/>
  <circle class="st0" cx="256" cy="256" r="98.7"/>
</svg>